<?xml version="1.0" encoding="UTF-8" standalone="no"?>
<!DOCTYPE svg PUBLIC "-//W3C//DTD SVG 20010904//EN"
              "http://www.w3.org/TR/2001/REC-SVG-20010904/DTD/svg10.dtd">

<svg xmlns="http://www.w3.org/2000/svg"
     width="7.5in" height="13.3333in"
     viewBox="0 0 540 960">
  <path id="路径"
        fill="none" stroke="black" stroke-width="1"
        d="
           M 249.58,522.86
           C 244.42,552.86 239.03,574.66 233.41,588.25
             226.38,585.44 218.88,582.63 210.91,579.81
             218.88,552.16 224.27,533.17 227.08,522.86
             227.08,522.86 249.58,522.86 249.58,522.86 Z
           M 227.08,475.05
           C 225.67,484.42 222.86,498.95 218.64,518.64
             218.64,518.64 194.03,518.64 194.03,518.64
             194.03,518.64 200.36,524.97 200.36,524.97
             205.52,523.56 211.14,522.86 217.23,522.86
             217.23,522.86 217.94,522.86 217.94,522.86
             212.78,543.48 207.39,562.94 201.77,581.22
             209.27,584.03 218.88,588.72 230.59,595.28
             223.56,609.34 211.84,623.17 195.44,636.77
             195.44,636.77 196.84,638.88 196.84,638.88
             213.25,629.50 226.84,616.38 237.63,599.50
             241.38,602.31 245.00,606.06 248.52,610.75
             252.04,615.44 254.27,615.56 255.20,611.11
             256.14,606.65 255.55,603.14 253.44,600.56
             251.33,597.98 247.23,595.28 241.14,592.47
             247.70,576.06 253.56,553.56 258.72,524.97
             258.72,524.97 264.34,520.05 264.34,520.05
             264.34,520.05 253.09,512.31 253.09,512.31
             253.09,512.31 248.88,518.64 248.88,518.64
             248.88,518.64 227.78,518.64 227.78,518.64
             231.53,504.58 234.58,494.27 236.92,487.70
             236.92,487.70 241.84,483.48 241.84,483.48
             241.84,483.48 227.08,475.05 227.08,475.05 Z
           M 403.56,494.03
           C 408.72,492.63 414.34,491.92 420.44,491.92
             420.44,491.92 500.59,491.92 500.59,491.92
             500.59,491.92 461.92,524.27 461.92,524.27
             461.92,524.27 452.08,517.94 452.08,517.94
             452.55,527.78 452.78,537.86 452.78,548.17
             452.78,548.17 374.73,548.17 374.73,548.17
             374.73,548.17 381.06,554.50 381.06,554.50
             386.22,553.09 391.84,552.39 397.94,552.39
             397.94,552.39 452.78,552.39 452.78,552.39
             452.78,552.39 452.78,611.45 452.78,611.45
             453.25,618.02 451.38,621.30 447.16,621.30
             442.94,621.30 434.50,620.59 421.84,619.19
             421.84,619.19 421.84,622.70 421.84,622.70
             437.31,626.92 445.05,632.55 445.05,639.58
             457.23,635.36 463.33,628.80 463.33,619.89
             463.33,619.89 463.33,552.39 463.33,552.39
             463.33,552.39 538.56,552.39 538.56,552.39
             538.56,552.39 523.09,536.92 523.09,536.92
             523.09,536.92 511.84,548.17 511.84,548.17
             511.84,548.17 463.33,548.17 463.33,548.17
             463.33,548.17 463.33,534.81 463.33,534.81
             463.33,534.81 471.06,530.59 471.06,530.59
             471.06,530.59 464.73,526.38 464.73,526.38
             480.67,515.13 492.97,507.04 501.64,502.13
             510.32,497.20 517.47,494.73 523.09,494.73
             523.09,494.73 509.73,479.27 509.73,479.27
             509.73,479.27 500.59,487.70 500.59,487.70
             500.59,487.70 397.23,487.70 397.23,487.70
             397.23,487.70 403.56,494.03 403.56,494.03 Z" />
</svg>
