<?xml version="1.0" encoding="UTF-8" standalone="no"?>
<!DOCTYPE svg PUBLIC "-//W3C//DTD SVG 20010904//EN"
              "http://www.w3.org/TR/2001/REC-SVG-20010904/DTD/svg10.dtd">

<svg xmlns="http://www.w3.org/2000/svg"
     width="7.5in" height="13.3333in"
     viewBox="0 0 540 960">
  <path id="路径"
        fill="none" stroke="black" stroke-width="1"
        d="
           M 403.56,494.03
           C 408.72,492.63 414.34,491.92 420.44,491.92
             420.44,491.92 500.59,491.92 500.59,491.92
             500.59,491.92 461.92,524.27 461.92,524.27
             461.92,524.27 452.08,517.94 452.08,517.94
             452.55,527.78 452.78,537.86 452.78,548.17
             452.78,548.17 374.73,548.17 374.73,548.17
             374.73,548.17 381.06,554.50 381.06,554.50
             386.22,553.09 391.84,552.39 397.94,552.39
             397.94,552.39 452.78,552.39 452.78,552.39
             452.78,552.39 452.78,611.45 452.78,611.45
             453.25,618.02 451.38,621.30 447.16,621.30
             442.94,621.30 434.50,620.59 421.84,619.19
             421.84,619.19 421.84,622.70 421.84,622.70
             437.31,626.92 445.05,632.55 445.05,639.58
             457.23,635.36 463.33,628.80 463.33,619.89
             463.33,619.89 463.33,552.39 463.33,552.39
             463.33,552.39 538.56,552.39 538.56,552.39
             538.56,552.39 523.09,536.92 523.09,536.92
             523.09,536.92 511.84,548.17 511.84,548.17
             511.84,548.17 463.33,548.17 463.33,548.17
             463.33,548.17 463.33,534.81 463.33,534.81
             463.33,534.81 471.06,530.59 471.06,530.59
             471.06,530.59 464.73,526.38 464.73,526.38
             480.67,515.13 492.97,507.04 501.64,502.13
             510.32,497.20 517.47,494.73 523.09,494.73
             523.09,494.73 509.73,479.27 509.73,479.27
             509.73,479.27 500.59,487.70 500.59,487.70
             500.59,487.70 397.23,487.70 397.23,487.70
             397.23,487.70 403.56,494.03 403.56,494.03 Z" />
</svg>
