<?xml version="1.0" encoding="UTF-8" standalone="no"?>
<!DOCTYPE svg PUBLIC "-//W3C//DTD SVG 20010904//EN"
              "http://www.w3.org/TR/2001/REC-SVG-20010904/DTD/svg10.dtd">

<svg xmlns="http://www.w3.org/2000/svg"
     width="7.5in" height="13.3333in"
     viewBox="0 0 540 960">
  <path id="路径"
        fill="none" stroke="black" stroke-width="1"
        d="
           M 324.11,157.94
           C 324.11,157.94 324.11,183.95 324.11,183.95
             324.11,183.95 299.50,183.95 299.50,183.95
             299.50,183.95 299.50,157.94 299.50,157.94
             299.50,157.94 324.11,157.94 324.11,157.94 Z
           M 208.09,134.73
           C 213.25,133.33 218.17,132.63 222.86,132.63
             222.86,132.63 253.09,132.63 253.09,132.63
             253.09,132.63 253.09,153.72 253.09,153.72
             253.09,153.72 229.89,153.72 229.89,153.72
             229.89,153.72 218.64,148.09 218.64,148.09
             219.11,156.06 219.34,164.15 219.34,172.36
             219.34,180.56 219.11,189.11 218.64,198.02
             218.64,198.02 228.48,193.80 228.48,193.80
             228.48,193.80 228.48,188.17 228.48,188.17
             228.48,188.17 324.11,188.17 324.11,188.17
             324.11,188.17 324.11,195.91 324.11,195.91
             324.11,195.91 333.95,190.98 333.95,190.98
             333.48,184.42 333.25,173.88 333.25,159.34
             333.25,159.34 338.88,154.42 338.88,154.42
             338.88,154.42 327.63,145.98 327.63,145.98
             327.63,145.98 322.70,153.72 322.70,153.72
             322.70,153.72 299.50,153.72 299.50,153.72
             299.50,153.72 299.50,132.63 299.50,132.63
             299.50,132.63 353.64,132.63 353.64,132.63
             353.64,132.63 339.58,117.86 339.58,117.86
             339.58,117.86 328.33,128.41 328.33,128.41
             328.33,128.41 201.77,128.41 201.77,128.41
             201.77,128.41 208.09,134.73 208.09,134.73 Z
           M 301.61,216.30
           C 296.45,227.08 290.59,235.75 284.03,242.31
             267.63,239.97 254.27,238.09 243.95,236.69
             250.05,227.78 254.73,220.98 258.02,216.30
             258.02,216.30 301.61,216.30 301.61,216.30 Z
           M 248.88,212.08
           C 248.88,212.08 194.73,212.08 194.73,212.08
             194.73,212.08 201.06,218.41 201.06,218.41
             206.22,217.00 210.67,216.30 214.42,216.30
             214.42,216.30 246.77,216.30 246.77,216.30
             239.73,228.02 234.58,235.75 231.30,239.50
             245.83,241.38 261.53,244.19 278.41,247.94
             262.47,259.66 235.28,268.56 196.84,274.66
             196.84,274.66 197.55,277.47 197.55,277.47
             224.27,274.66 244.07,271.02 256.95,266.56
             269.85,262.11 280.52,257.08 288.95,251.45
             311.45,258.95 326.10,265.52 332.89,271.14
             339.69,276.77 342.97,276.53 342.73,270.44
             342.50,264.34 338.99,259.66 332.19,256.38
             325.39,253.09 312.86,249.34 294.58,245.13
             302.08,236.22 308.41,226.61 313.56,216.30
             313.56,216.30 357.86,216.30 357.86,216.30
             357.86,216.30 343.09,201.53 343.09,201.53
             343.09,201.53 331.14,212.08 331.14,212.08
             331.14,212.08 259.42,212.08 259.42,212.08
             262.23,207.86 264.81,204.11 267.16,200.83
             267.16,200.83 272.78,198.02 272.78,198.02
             272.78,198.02 258.02,189.58 258.02,189.58
             256.14,197.08 253.09,204.58 248.88,212.08 Z
           M 92.78,394.19
           C 95.59,398.88 97.94,399.58 99.81,396.30
             101.69,393.02 101.69,389.03 99.81,384.34
             97.94,379.66 88.09,374.50 70.28,368.88
             70.28,368.88 70.28,353.41 70.28,353.41
             70.28,353.41 106.14,353.41 106.14,353.41
             106.14,353.41 94.89,341.45 94.89,341.45
             94.89,341.45 87.16,349.19 87.16,349.19
             87.16,349.19 70.28,349.19 70.28,349.19
             70.28,349.19 70.28,316.14 70.28,316.14
             77.78,314.27 87.86,312.63 100.52,311.22
             100.52,311.22 90.67,298.56 90.67,298.56
             83.17,303.25 74.27,307.12 63.95,310.17
             53.64,313.21 40.52,315.91 24.58,318.25
             24.58,318.25 24.58,321.06 24.58,321.06
             41.92,319.66 53.88,318.48 60.44,317.55
             60.44,317.55 60.44,349.19 60.44,349.19
             60.44,349.19 21.06,349.19 21.06,349.19
             21.06,349.19 26.69,354.81 26.69,354.81
             26.69,354.81 33.02,353.41 33.02,353.41
             33.02,353.41 56.92,353.41 56.92,353.41
             53.64,364.19 48.48,375.79 41.45,388.22
             34.42,400.64 25.52,412.70 14.73,424.42
             14.73,424.42 16.14,426.53 16.14,426.53
             25.05,419.50 33.25,411.42 40.75,402.28
             48.25,393.14 54.81,383.17 60.44,372.39
             60.44,415.05 60.20,443.41 59.73,457.47
             59.73,457.47 70.98,451.84 70.98,451.84
             70.52,442.00 70.28,415.52 70.28,372.39
             82.47,382.23 89.97,389.50 92.78,394.19 Z
           M 172.23,324.58
           C 172.23,324.58 162.39,314.73 162.39,314.73
             162.39,314.73 155.36,321.77 155.36,321.77
             155.36,321.77 120.91,321.77 120.91,321.77
             120.91,321.77 110.36,314.73 110.36,314.73
             110.83,330.67 111.06,350.25 111.06,373.45
             111.06,396.65 110.83,418.56 110.36,439.19
             110.36,439.19 120.91,434.27 120.91,434.27
             120.91,434.27 120.91,418.09 120.91,418.09
             120.91,418.09 156.77,418.09 156.77,418.09
             156.77,418.09 156.77,432.86 156.77,432.86
             156.77,432.86 167.31,428.64 167.31,428.64
             166.84,415.05 166.61,381.77 166.61,328.80
             166.61,328.80 172.23,324.58 172.23,324.58 Z
           M 156.77,325.98
           C 156.77,325.98 156.77,413.88 156.77,413.88
             156.77,413.88 120.91,413.88 120.91,413.88
             120.91,413.88 120.91,325.98 120.91,325.98
             120.91,325.98 156.77,325.98 156.77,325.98 Z
           M 211.61,442.70
           C 224.27,446.92 230.59,452.08 230.59,458.17
             241.84,454.89 247.47,448.80 247.47,439.89
             247.47,439.89 247.47,392.78 247.47,392.78
             247.47,392.78 279.11,379.42 279.11,379.42
             279.11,379.42 277.70,377.31 277.70,377.31
             277.70,377.31 247.47,386.45 247.47,386.45
             247.47,386.45 247.47,354.11 247.47,354.11
             247.47,354.11 285.44,354.11 285.44,354.11
             287.31,381.30 290.36,400.28 294.58,411.06
             284.73,420.91 269.97,431.22 250.28,442.00
             250.28,442.00 250.98,444.81 250.98,444.81
             270.20,437.31 286.14,428.64 298.80,418.80
             311.45,436.61 325.75,448.21 341.69,453.59
             357.63,458.99 363.25,459.11 358.56,453.95
             353.88,448.80 352.23,434.97 353.64,412.47
             353.64,412.47 350.83,412.47 350.83,412.47
             350.83,412.47 345.20,443.41 345.20,443.41
             329.73,438.25 316.61,427.94 305.83,412.47
             318.48,397.00 327.63,385.05 333.25,376.61
             333.25,376.61 340.98,373.80 340.98,373.80
             340.98,373.80 329.03,361.84 329.03,361.84
             322.47,375.91 313.56,389.73 302.31,403.33
             299.03,394.42 296.69,378.02 295.28,354.11
             295.28,354.11 355.05,354.11 355.05,354.11
             355.05,354.11 340.98,340.05 340.98,340.05
             340.98,340.05 331.14,349.89 331.14,349.89
             331.14,349.89 294.58,349.89 294.58,349.89
             294.11,333.48 293.88,319.89 293.88,309.11
             293.88,309.11 300.91,304.19 300.91,304.19
             300.91,304.19 282.63,295.75 282.63,295.75
             283.09,305.59 283.80,323.64 284.73,349.89
             284.73,349.89 247.47,349.89 247.47,349.89
             247.47,349.89 247.47,316.14 247.47,316.14
             257.78,314.27 266.92,312.86 274.89,311.92
             274.89,311.92 264.34,299.27 264.34,299.27
             259.19,303.95 250.05,308.06 236.92,311.58
             223.80,315.09 212.31,317.55 202.47,318.95
             202.47,318.95 202.47,321.77 202.47,321.77
             215.13,320.36 226.84,318.95 237.63,317.55
             237.63,317.55 237.63,349.89 237.63,349.89
             237.63,349.89 195.44,349.89 195.44,349.89
             195.44,349.89 201.77,356.22 201.77,356.22
             206.92,354.81 212.55,354.11 218.64,354.11
             218.64,354.11 237.63,354.11 237.63,354.11
             237.63,354.11 237.63,389.27 237.63,389.27
             216.53,395.83 202.47,399.58 195.44,400.52
             195.44,400.52 203.88,414.58 203.88,414.58
             205.75,411.30 217.00,405.44 237.63,397.00
             237.63,397.00 237.63,434.27 237.63,434.27
             238.09,439.89 235.39,442.47 229.53,442.00
             223.68,441.53 217.70,440.83 211.61,439.89
             211.61,439.89 211.61,442.70 211.61,442.70 Z
           M 310.75,307.70
           C 319.66,317.55 325.52,325.40 328.33,331.27
             331.14,337.12 333.95,338.41 336.77,335.13
             339.58,331.84 340.75,328.68 340.28,325.64
             339.81,322.59 337.11,319.42 332.19,316.14
             327.27,312.86 320.59,309.34 312.16,305.59
             312.16,305.59 310.75,307.70 310.75,307.70 Z
           M 106.84,633.25
           C 106.84,633.25 155.36,633.25 155.36,633.25
             163.80,633.72 170.36,630.20 175.05,622.70
             171.30,621.77 168.83,619.42 167.66,615.67
             166.49,611.92 165.67,604.19 165.20,592.47
             165.20,592.47 162.39,592.47 162.39,592.47
             161.92,602.31 161.22,610.17 160.28,616.03
             159.34,621.89 155.59,624.58 149.03,624.11
             149.03,624.11 112.47,624.11 112.47,624.11
             104.97,625.05 101.45,621.77 101.92,614.27
             101.92,614.27 101.92,551.69 101.92,551.69
             101.92,551.69 137.08,551.69 137.08,551.69
             137.08,551.69 137.08,583.33 137.08,583.33
             137.08,588.02 135.55,590.36 132.50,590.36
             129.46,590.36 123.72,589.66 115.28,588.25
             115.28,588.25 115.28,591.06 115.28,591.06
             126.06,594.81 131.45,599.27 131.45,604.42
             141.77,601.14 146.92,595.98 146.92,588.95
             146.92,588.95 146.92,553.80 146.92,553.80
             146.92,553.80 152.55,549.58 152.55,549.58
             152.55,549.58 141.30,540.44 141.30,540.44
             141.30,540.44 135.67,547.47 135.67,547.47
             135.67,547.47 101.92,547.47 101.92,547.47
             101.92,547.47 91.38,541.84 91.38,541.84
             91.84,548.88 92.08,574.66 92.08,619.19
             91.61,629.50 96.53,634.19 106.84,633.25 Z
           M 102.27,509.50
           C 96.41,521.69 90.32,531.89 83.98,540.09
             77.66,548.29 71.45,554.97 65.36,560.13
             65.36,560.13 66.77,562.23 66.77,562.23
             88.33,547.70 106.38,525.20 120.91,494.73
             131.69,519.11 146.45,537.63 165.20,550.28
             167.08,545.59 171.77,542.78 179.27,541.84
             179.27,541.84 179.27,539.03 179.27,539.03
             168.95,537.16 158.52,531.77 147.97,522.86
             137.43,513.95 129.11,503.17 123.02,490.52
             123.02,490.52 130.05,485.59 130.05,485.59
             130.05,485.59 115.28,475.75 115.28,475.75
             112.47,486.06 108.13,497.31 102.27,509.50 Z
           M 22.47,578.41
           C 22.94,575.59 30.67,570.44 45.67,562.94
             45.67,562.94 45.67,614.27 45.67,614.27
             45.67,618.95 43.91,621.42 40.39,621.66
             36.88,621.89 29.97,621.06 19.66,619.19
             19.66,619.19 19.66,622.00 19.66,622.00
             33.72,627.16 40.52,632.31 40.05,637.47
             49.89,634.19 55.05,627.86 55.52,618.48
             55.52,618.48 55.52,558.02 55.52,558.02
             55.52,558.02 77.31,546.06 77.31,546.06
             77.31,546.06 75.91,543.25 75.91,543.25
             75.91,543.25 55.52,551.69 55.52,551.69
             55.52,551.69 55.52,520.05 55.52,520.05
             55.52,520.05 84.34,520.05 84.34,520.05
             84.34,520.05 72.39,508.09 72.39,508.09
             72.39,508.09 64.66,515.83 64.66,515.83
             64.66,515.83 55.52,515.83 55.52,515.83
             55.52,515.83 55.52,487.70 55.52,487.70
             55.52,487.70 61.84,483.48 61.84,483.48
             61.84,483.48 44.97,475.05 44.97,475.05
             45.44,486.77 45.67,500.36 45.67,515.83
             45.67,515.83 15.44,515.83 15.44,515.83
             15.44,515.83 21.06,521.45 21.06,521.45
             21.06,521.45 29.50,520.05 29.50,520.05
             29.50,520.05 45.67,520.05 45.67,520.05
             45.67,520.05 45.67,555.20 45.67,555.20
             34.42,559.42 23.88,562.94 14.03,565.75
             14.03,565.75 22.47,578.41 22.47,578.41 Z
           M 309.34,549.58
           C 309.34,549.58 312.16,549.58 312.16,549.58
             313.56,561.30 317.31,573.84 323.41,587.20
             329.50,600.56 337.00,612.16 345.91,622.00
             349.19,617.78 353.88,615.67 359.97,615.67
             359.97,615.67 359.97,612.86 359.97,612.86
             351.53,610.05 343.09,602.90 334.66,591.42
             326.22,579.93 319.66,565.98 314.97,549.58
             314.97,549.58 359.27,549.58 359.27,549.58
             359.27,549.58 346.61,536.92 346.61,536.92
             346.61,536.92 338.17,545.36 338.17,545.36
             338.17,545.36 309.34,545.36 309.34,545.36
             309.34,545.36 309.34,514.42 309.34,514.42
             309.34,514.42 348.72,514.42 348.72,514.42
             348.72,514.42 336.77,502.47 336.77,502.47
             336.77,502.47 329.03,510.20 329.03,510.20
             329.03,510.20 309.34,510.20 309.34,510.20
             309.34,510.20 309.34,487.00 309.34,487.00
             309.34,487.00 314.97,482.08 314.97,482.08
             314.97,482.08 299.50,475.05 299.50,475.05
             299.97,482.08 300.20,487.47 300.20,491.22
             300.20,491.22 300.20,510.20 300.20,510.20
             300.20,510.20 266.45,510.20 266.45,510.20
             266.45,510.20 272.78,516.53 272.78,516.53
             277.94,515.13 283.56,514.42 289.66,514.42
             289.66,514.42 300.20,514.42 300.20,514.42
             300.20,514.42 300.20,545.36 300.20,545.36
             300.20,545.36 258.02,545.36 258.02,545.36
             258.02,545.36 264.34,551.69 264.34,551.69
             269.50,550.28 275.13,549.58 281.22,549.58
             281.22,549.58 293.17,549.58 293.17,549.58
             289.42,562.23 283.56,575.59 275.59,589.66
             267.63,603.72 258.02,616.38 246.77,627.63
             246.77,627.63 248.17,629.03 248.17,629.03
             257.55,622.94 266.92,613.80 276.30,601.61
             285.67,589.42 293.64,575.36 300.20,559.42
             300.20,559.42 300.20,608.64 300.20,608.64
             300.20,616.14 299.97,626.69 299.50,640.28
             299.50,640.28 310.05,635.36 310.05,635.36
             309.58,622.70 309.34,612.16 309.34,603.72
             309.34,603.72 309.34,549.58 309.34,549.58 Z
           M 249.58,522.86
           C 244.42,552.86 239.03,574.66 233.41,588.25
             226.38,585.44 218.88,582.63 210.91,579.81
             218.88,552.16 224.27,533.17 227.08,522.86
             227.08,522.86 249.58,522.86 249.58,522.86 Z
           M 227.08,475.05
           C 225.67,484.42 222.86,498.95 218.64,518.64
             218.64,518.64 194.03,518.64 194.03,518.64
             194.03,518.64 200.36,524.97 200.36,524.97
             205.52,523.56 211.14,522.86 217.23,522.86
             217.23,522.86 217.94,522.86 217.94,522.86
             212.78,543.48 207.39,562.94 201.77,581.22
             209.27,584.03 218.88,588.72 230.59,595.28
             223.56,609.34 211.84,623.17 195.44,636.77
             195.44,636.77 196.84,638.88 196.84,638.88
             213.25,629.50 226.84,616.38 237.63,599.50
             241.38,602.31 245.00,606.06 248.52,610.75
             252.04,615.44 254.27,615.56 255.20,611.11
             256.14,606.65 255.55,603.14 253.44,600.56
             251.33,597.98 247.23,595.28 241.14,592.47
             247.70,576.06 253.56,553.56 258.72,524.97
             258.72,524.97 264.34,520.05 264.34,520.05
             264.34,520.05 253.09,512.31 253.09,512.31
             253.09,512.31 248.88,518.64 248.88,518.64
             248.88,518.64 227.78,518.64 227.78,518.64
             231.53,504.58 234.58,494.27 236.92,487.70
             236.92,487.70 241.84,483.48 241.84,483.48
             241.84,483.48 227.08,475.05 227.08,475.05 Z
           M 403.56,494.03
           C 408.72,492.63 414.34,491.92 420.44,491.92
             420.44,491.92 500.59,491.92 500.59,491.92
             500.59,491.92 461.92,524.27 461.92,524.27
             461.92,524.27 452.08,517.94 452.08,517.94
             452.55,527.78 452.78,537.86 452.78,548.17
             452.78,548.17 374.73,548.17 374.73,548.17
             374.73,548.17 381.06,554.50 381.06,554.50
             386.22,553.09 391.84,552.39 397.94,552.39
             397.94,552.39 452.78,552.39 452.78,552.39
             452.78,552.39 452.78,611.45 452.78,611.45
             453.25,618.02 451.38,621.30 447.16,621.30
             442.94,621.30 434.50,620.59 421.84,619.19
             421.84,619.19 421.84,622.70 421.84,622.70
             437.31,626.92 445.05,632.55 445.05,639.58
             457.23,635.36 463.33,628.80 463.33,619.89
             463.33,619.89 463.33,552.39 463.33,552.39
             463.33,552.39 538.56,552.39 538.56,552.39
             538.56,552.39 523.09,536.92 523.09,536.92
             523.09,536.92 511.84,548.17 511.84,548.17
             511.84,548.17 463.33,548.17 463.33,548.17
             463.33,548.17 463.33,534.81 463.33,534.81
             463.33,534.81 471.06,530.59 471.06,530.59
             471.06,530.59 464.73,526.38 464.73,526.38
             480.67,515.13 492.97,507.04 501.64,502.13
             510.32,497.20 517.47,494.73 523.09,494.73
             523.09,494.73 509.73,479.27 509.73,479.27
             509.73,479.27 500.59,487.70 500.59,487.70
             500.59,487.70 397.23,487.70 397.23,487.70
             397.23,487.70 403.56,494.03 403.56,494.03 Z" />
</svg>
