<?xml version="1.0" encoding="UTF-8" standalone="no"?>
<!DOCTYPE svg PUBLIC "-//W3C//DTD SVG 20010904//EN"
              "http://www.w3.org/TR/2001/REC-SVG-20010904/DTD/svg10.dtd">

<svg xmlns="http://www.w3.org/2000/svg"
     width="7.5in" height="13.3333in"
     viewBox="0 0 540 960">
  <path id="路径"
        fill="none" stroke="black" stroke-width="1"
        d="
           M 102.27,509.50
           C 96.41,521.69 90.32,531.89 83.98,540.09
             77.66,548.29 71.45,554.97 65.36,560.13
             65.36,560.13 66.77,562.23 66.77,562.23
             88.33,547.70 106.38,525.20 120.91,494.73
             131.69,519.11 146.45,537.63 165.20,550.28
             167.08,545.59 171.77,542.78 179.27,541.84
             179.27,541.84 179.27,539.03 179.27,539.03
             168.95,537.16 158.52,531.77 147.97,522.86
             137.43,513.95 129.11,503.17 123.02,490.52
             123.02,490.52 130.05,485.59 130.05,485.59
             130.05,485.59 115.28,475.75 115.28,475.75
             112.47,486.06 108.13,497.31 102.27,509.50 Z
           M 22.47,578.41
           C 22.94,575.59 30.67,570.44 45.67,562.94
             45.67,562.94 45.67,614.27 45.67,614.27
             45.67,618.95 43.91,621.42 40.39,621.66
             36.88,621.89 29.97,621.06 19.66,619.19
             19.66,619.19 19.66,622.00 19.66,622.00
             33.72,627.16 40.52,632.31 40.05,637.47
             49.89,634.19 55.05,627.86 55.52,618.48
             55.52,618.48 55.52,558.02 55.52,558.02
             55.52,558.02 77.31,546.06 77.31,546.06
             77.31,546.06 75.91,543.25 75.91,543.25
             75.91,543.25 55.52,551.69 55.52,551.69
             55.52,551.69 55.52,520.05 55.52,520.05
             55.52,520.05 84.34,520.05 84.34,520.05
             84.34,520.05 72.39,508.09 72.39,508.09
             72.39,508.09 64.66,515.83 64.66,515.83
             64.66,515.83 55.52,515.83 55.52,515.83
             55.52,515.83 55.52,487.70 55.52,487.70
             55.52,487.70 61.84,483.48 61.84,483.48
             61.84,483.48 44.97,475.05 44.97,475.05
             45.44,486.77 45.67,500.36 45.67,515.83
             45.67,515.83 15.44,515.83 15.44,515.83
             15.44,515.83 21.06,521.45 21.06,521.45
             21.06,521.45 29.50,520.05 29.50,520.05
             29.50,520.05 45.67,520.05 45.67,520.05
             45.67,520.05 45.67,555.20 45.67,555.20
             34.42,559.42 23.88,562.94 14.03,565.75
             14.03,565.75 22.47,578.41 22.47,578.41 Z
           M 309.34,549.58
           C 309.34,549.58 312.16,549.58 312.16,549.58
             313.56,561.30 317.31,573.84 323.41,587.20
             329.50,600.56 337.00,612.16 345.91,622.00
             349.19,617.78 353.88,615.67 359.97,615.67
             359.97,615.67 359.97,612.86 359.97,612.86
             351.53,610.05 343.09,602.90 334.66,591.42
             326.22,579.93 319.66,565.98 314.97,549.58
             314.97,549.58 359.27,549.58 359.27,549.58
             359.27,549.58 346.61,536.92 346.61,536.92
             346.61,536.92 338.17,545.36 338.17,545.36
             338.17,545.36 309.34,545.36 309.34,545.36
             309.34,545.36 309.34,514.42 309.34,514.42
             309.34,514.42 348.72,514.42 348.72,514.42
             348.72,514.42 336.77,502.47 336.77,502.47
             336.77,502.47 329.03,510.20 329.03,510.20
             329.03,510.20 309.34,510.20 309.34,510.20
             309.34,510.20 309.34,487.00 309.34,487.00
             309.34,487.00 314.97,482.08 314.97,482.08
             314.97,482.08 299.50,475.05 299.50,475.05
             299.97,482.08 300.20,487.47 300.20,491.22
             300.20,491.22 300.20,510.20 300.20,510.20
             300.20,510.20 266.45,510.20 266.45,510.20
             266.45,510.20 272.78,516.53 272.78,516.53
             277.94,515.13 283.56,514.42 289.66,514.42
             289.66,514.42 300.20,514.42 300.20,514.42
             300.20,514.42 300.20,545.36 300.20,545.36
             300.20,545.36 258.02,545.36 258.02,545.36
             258.02,545.36 264.34,551.69 264.34,551.69
             269.50,550.28 275.13,549.58 281.22,549.58
             281.22,549.58 293.17,549.58 293.17,549.58
             289.42,562.23 283.56,575.59 275.59,589.66
             267.63,603.72 258.02,616.38 246.77,627.63
             246.77,627.63 248.17,629.03 248.17,629.03
             257.55,622.94 266.92,613.80 276.30,601.61
             285.67,589.42 293.64,575.36 300.20,559.42
             300.20,559.42 300.20,608.64 300.20,608.64
             300.20,616.14 299.97,626.69 299.50,640.28
             299.50,640.28 310.05,635.36 310.05,635.36
             309.58,622.70 309.34,612.16 309.34,603.72
             309.34,603.72 309.34,549.58 309.34,549.58 Z
           M 249.58,522.86
           C 244.42,552.86 239.03,574.66 233.41,588.25
             226.38,585.44 218.88,582.63 210.91,579.81
             218.88,552.16 224.27,533.17 227.08,522.86
             227.08,522.86 249.58,522.86 249.58,522.86 Z
           M 227.08,475.05
           C 225.67,484.42 222.86,498.95 218.64,518.64
             218.64,518.64 194.03,518.64 194.03,518.64
             194.03,518.64 200.36,524.97 200.36,524.97
             205.52,523.56 211.14,522.86 217.23,522.86
             217.23,522.86 217.94,522.86 217.94,522.86
             212.78,543.48 207.39,562.94 201.77,581.22
             209.27,584.03 218.88,588.72 230.59,595.28
             223.56,609.34 211.84,623.17 195.44,636.77
             195.44,636.77 196.84,638.88 196.84,638.88
             213.25,629.50 226.84,616.38 237.63,599.50
             241.38,602.31 245.00,606.06 248.52,610.75
             252.04,615.44 254.27,615.56 255.20,611.11
             256.14,606.65 255.55,603.14 253.44,600.56
             251.33,597.98 247.23,595.28 241.14,592.47
             247.70,576.06 253.56,553.56 258.72,524.97
             258.72,524.97 264.34,520.05 264.34,520.05
             264.34,520.05 253.09,512.31 253.09,512.31
             253.09,512.31 248.88,518.64 248.88,518.64
             248.88,518.64 227.78,518.64 227.78,518.64
             231.53,504.58 234.58,494.27 236.92,487.70
             236.92,487.70 241.84,483.48 241.84,483.48
             241.84,483.48 227.08,475.05 227.08,475.05 Z
           M 403.56,494.03
           C 408.72,492.63 414.34,491.92 420.44,491.92
             420.44,491.92 500.59,491.92 500.59,491.92
             500.59,491.92 461.92,524.27 461.92,524.27
             461.92,524.27 452.08,517.94 452.08,517.94
             452.55,527.78 452.78,537.86 452.78,548.17
             452.78,548.17 374.73,548.17 374.73,548.17
             374.73,548.17 381.06,554.50 381.06,554.50
             386.22,553.09 391.84,552.39 397.94,552.39
             397.94,552.39 452.78,552.39 452.78,552.39
             452.78,552.39 452.78,611.45 452.78,611.45
             453.25,618.02 451.38,621.30 447.16,621.30
             442.94,621.30 434.50,620.59 421.84,619.19
             421.84,619.19 421.84,622.70 421.84,622.70
             437.31,626.92 445.05,632.55 445.05,639.58
             457.23,635.36 463.33,628.80 463.33,619.89
             463.33,619.89 463.33,552.39 463.33,552.39
             463.33,552.39 538.56,552.39 538.56,552.39
             538.56,552.39 523.09,536.92 523.09,536.92
             523.09,536.92 511.84,548.17 511.84,548.17
             511.84,548.17 463.33,548.17 463.33,548.17
             463.33,548.17 463.33,534.81 463.33,534.81
             463.33,534.81 471.06,530.59 471.06,530.59
             471.06,530.59 464.73,526.38 464.73,526.38
             480.67,515.13 492.97,507.04 501.64,502.13
             510.32,497.20 517.47,494.73 523.09,494.73
             523.09,494.73 509.73,479.27 509.73,479.27
             509.73,479.27 500.59,487.70 500.59,487.70
             500.59,487.70 397.23,487.70 397.23,487.70
             397.23,487.70 403.56,494.03 403.56,494.03 Z" />
</svg>
